<?xml version="1.0" encoding="utf-8"?>
<svg viewBox="0 0 500 500" xmlns="http://www.w3.org/2000/svg" xmlns:bx="https://boxy-svg.com">
  <defs>
    <bx:grid x="0" y="0" width="8" height="8"/>
  </defs>
  <rect width="64" height="88" style="stroke: rgb(0, 0, 0); stroke-width: 3px; fill: none;" rx="10" ry="10"/>
  <circle style="" cx="16" cy="16" r="8"/>
  <circle style="" cx="16" cy="72" r="8"/>
  <circle style="fill: none; stroke: rgb(0, 0, 0); stroke-width: 3px;" cx="48" cy="16" r="7"/>
  <path d="M 7.628 3.153 H 29.087 L 29.087 -1.456 L 40.628 4.729 L 29.087 10.915 L 29.087 6.306 H 7.628 V 3.153 Z" style="" transform="matrix(0.001733, 0.999998, -0.999998, 0.001733, 20.655649, 15.353168)" bx:shape="arrow 7.628 -1.456 33 12.371 3.153 11.541 0 1@029ec2bb"/>
  <path d="M 5.545 3.154 H 18.349 L 18.349 -1.456 L 29.533 4.729 L 18.349 10.915 L 18.349 6.306 H 5.545 V 3.153 Z" style="" transform="matrix(0.001733, 0.999998, -0.999998, 0.001733, 52.664318, 26.448145)" bx:shape="arrow 5.545 -1.074 23.988 11.609 3.153 11.541 0 1@762236a1" bx:shape="arrow 5.545 -1.074 23.988 11.609 3.153 11.184 0 1@762236a1"/>
  <line style="stroke: rgb(0, 0, 0); stroke-width: 3px;" x1="16" y1="31.991" x2="49.515" y2="31.991"/>
  <circle style="" cx="48" cy="72" r="8"/>
</svg>